<svg xmlns="http://www.w3.org/2000/svg" width="512" height="512" viewBox="0 0 512 512" role="img" aria-label="Mercado Softwares">
  <defs>
    <linearGradient id="g" x1="0" y1="0" x2="1" y2="1">
      <stop offset="0" stop-color="#2563eb"/>
      <stop offset="1" stop-color="#0ea5e9"/>
    </linearGradient>
  </defs>
  <rect x="32" y="32" width="448" height="448" rx="112" fill="url(#g)"/>
  <path fill="#ffffff" d="M168 210a28 28 0 0 1 28-28h120a28 28 0 0 1 28 28v8h12a24 24 0 0 1 24 24v120a24 24 0 0 1-24 24H156a24 24 0 0 1-24-24V242a24 24 0 0 1 24-24h12v-8zm44 8h88v-8a12 12 0 0 0-12-12h-64a12 12 0 0 0-12 12v8zm-44 32h176v116H168V250zm32 32h52a12 12 0 0 1 0 24h-52a12 12 0 0 1 0-24zm0 44h96a12 12 0 0 1 0 24h-96a12 12 0 0 1 0-24z"/>
  <text x="256" y="446" text-anchor="middle" font-family="ui-sans-serif, system-ui, -apple-system, Segoe UI, Roboto, Arial" font-size="46" font-weight="800" fill="#ffffff" letter-spacing="1">MS</text>
</svg>
