<svg xmlns="http://www.w3.org/2000/svg" xmlns:xlink="http://www.w3.org/1999/xlink" x="0px" y="0px" viewBox="0 0 145.7 36.4" style="enable-background:new 0 0 145.7 36.4;" xml:space="preserve"><style type="text/css">	.st0{fill:#FFFFFF;}</style><g id="&#x421;&#x43B;&#x43E;&#x439;_2"></g><g id="Layer_1">	<g>		<g>			<g>				<path class="st0" d="M36.5,13.4L20.6,1.8l-1.5-1.1l-1.1,0.8L2.2,13.1l-0.4,0.3l-1.1,0.8l0.4,1.2l0.2,0.5l6.1,18.7l0.4,1.2h1.8     h19.6h1.3l0.6-1.7L37,15.9l0.6-1.7L36.5,13.4z M19.8,4.3l12.4,9H16.8l0.8-2.3L19.8,4.3z M16.8,5.6l-2,6l-0.6,1.8H6L16.8,5.6z      M12.7,18L12,20.2l-6-4.3h7.4L12.7,18z M8.7,30.5L4.6,17.9l6.6,4.8L8.7,30.5z M10.4,33.3l2.4-7.3l0.6-1.8l4.9,3.6l7.5,5.5h0     H10.4z M28.9,32.5l-8.9-6.4l-6-4.3l1-2.9l1-2.9h18.3L28.9,32.5z"></path>			</g>		</g>		<g>			<g>				<path class="st0" d="M30.9,36.4H7.3L0,13.9L19.1,0l19.1,13.9L30.9,36.4z M8.2,35.1H30l6.7-20.8L19.1,1.5L1.5,14.4L8.2,35.1z      M27.7,33.9H9.5L13,23.2L27.7,33.9z M11.2,32.6h12.6l-10.2-7.4L11.2,32.6z M29.3,33.5L13.4,22l2.2-6.7h19.6L29.3,33.5z      M14.9,21.5l13.8,10l4.9-15h-17L14.9,21.5z M8.7,32.5L3.4,16.2l8.5,6.2L8.7,32.5z M5.7,19.5l2.9,9l1.8-5.6L5.7,19.5z M12.3,21.2     l-8.2-6h10.1L12.3,21.2z M7.9,16.5l3.7,2.7l0.9-2.7H7.9z M34.1,14H16l3.5-10.7L34.1,14z M17.7,12.7h12.6L20.1,5.3L17.7,12.7z      M14.7,14H4.1l13.8-10L14.7,14z M7.9,12.7h5.8l1.8-5.5L7.9,12.7z"></path>			</g>		</g>	</g>	<g>		<g>			<path class="st0" d="M81.6,30.8c-0.3-0.3-0.6-0.5-0.9-0.7c-0.4-0.2-0.8-0.2-1.2-0.2c-0.4,0-0.9,0.1-1.2,0.3    c-0.4,0.2-0.7,0.4-0.9,0.7c-0.3,0.3-0.5,0.6-0.6,1c-0.1,0.4-0.2,0.8-0.2,1.3c0,0.5,0.1,0.9,0.2,1.3c0.1,0.4,0.3,0.7,0.6,1    c0.3,0.3,0.6,0.5,0.9,0.7c0.4,0.2,0.8,0.2,1.2,0.2c0.4,0,0.8-0.1,1.2-0.2c0.3-0.1,0.6-0.3,0.9-0.4c0.2-0.2,0.4-0.3,0.5-0.5    c0.1-0.2,0.2-0.3,0.2-0.4c0-0.1,0-0.2-0.1-0.2c-0.1-0.1-0.1-0.1-0.2-0.1h-1c-0.1,0-0.2,0-0.2,0c-0.1,0-0.1,0.1-0.2,0.1    c-0.1,0.1-0.2,0.1-0.4,0.2c-0.2,0.1-0.4,0.1-0.6,0.1c-0.2,0-0.3,0-0.5-0.1c-0.2,0-0.3-0.1-0.4-0.2c-0.1-0.1-0.2-0.2-0.3-0.4    c-0.1-0.1-0.1-0.3-0.1-0.5h4c0.1,0,0.2,0,0.2-0.1c0.1-0.1,0.1-0.1,0.1-0.2v-0.5c0-0.4-0.1-0.8-0.2-1.2    C82,31.4,81.8,31.1,81.6,30.8z M78.1,32.4c0-0.1,0.1-0.2,0.1-0.4c0.1-0.1,0.1-0.3,0.3-0.4c0.1-0.1,0.2-0.2,0.4-0.3    c0.2-0.1,0.4-0.1,0.6-0.1c0.3,0,0.5,0,0.6,0.1c0.2,0.1,0.3,0.2,0.4,0.3c0.1,0.1,0.2,0.2,0.2,0.4c0,0.1,0.1,0.3,0.1,0.4H78.1z     M85.3,30.3c0.1-0.2,0.2-0.4,0.4-0.6c0.2-0.2,0.3-0.3,0.6-0.4c0.2-0.1,0.5-0.1,0.8-0.1s0.6,0,0.8,0.1c0.2,0.1,0.4,0.2,0.6,0.3    c0.2,0.1,0.3,0.3,0.4,0.4c0.1,0.2,0.1,0.3,0.2,0.5c0,0.1,0.1,0.2,0.1,0.2c0.1,0.1,0.1,0.1,0.2,0.1h1c0.1,0,0.2,0,0.2-0.1    c0.1-0.1,0.1-0.1,0.1-0.2c0-0.3-0.1-0.6-0.2-1c-0.1-0.3-0.4-0.6-0.6-0.9c-0.3-0.3-0.7-0.5-1.1-0.6c-0.4-0.2-1-0.3-1.6-0.3    c-0.6,0-1,0.1-1.5,0.2c-0.4,0.2-0.8,0.4-1.1,0.7c-0.3,0.3-0.5,0.6-0.7,1c-0.2,0.4-0.3,0.9-0.3,1.3c0,0.3,0,0.6,0,1    c0,0.4,0,0.7,0,1c0,0.5,0.1,0.9,0.3,1.3c0.2,0.4,0.4,0.8,0.7,1c0.3,0.3,0.7,0.5,1.1,0.7c0.4,0.2,0.9,0.2,1.5,0.2    c0.6,0,1.2-0.1,1.6-0.3c0.4-0.2,0.8-0.4,1.1-0.6s0.5-0.6,0.6-0.9c0.1-0.3,0.2-0.7,0.2-1c0-0.1,0-0.2-0.1-0.2    c-0.1-0.1-0.1-0.1-0.2-0.1h-1c-0.1,0-0.2,0-0.2,0.1C89,33.4,89,33.5,89,33.6c0,0.2-0.1,0.3-0.2,0.5c-0.1,0.2-0.2,0.3-0.4,0.4    c-0.2,0.1-0.4,0.2-0.6,0.3c-0.2,0.1-0.5,0.1-0.8,0.1s-0.6,0-0.8-0.1c-0.2-0.1-0.4-0.2-0.6-0.4c-0.2-0.2-0.3-0.3-0.4-0.6    c-0.1-0.2-0.1-0.5-0.2-0.7c0-0.3,0-0.6,0-1c0-0.4,0-0.7,0-1C85.1,30.8,85.2,30.6,85.3,30.3z M97.4,31.5c-0.2-0.3-0.4-0.6-0.6-0.8    c-0.3-0.2-0.6-0.4-0.9-0.6c-0.4-0.1-0.8-0.2-1.2-0.2c-0.4,0-0.8,0.1-1.2,0.2c-0.4,0.1-0.7,0.3-0.9,0.6c-0.3,0.2-0.5,0.5-0.6,0.8    c-0.2,0.3-0.2,0.7-0.3,1c0,0.1,0,0.2,0,0.3c0,0.1,0,0.2,0,0.3c0,0.1,0,0.2,0,0.3c0,0.1,0,0.2,0,0.3c0,0.4,0.1,0.7,0.3,1    c0.2,0.3,0.4,0.6,0.6,0.8c0.3,0.2,0.6,0.4,0.9,0.6c0.4,0.1,0.8,0.2,1.2,0.2c0.4,0,0.8-0.1,1.2-0.2c0.4-0.1,0.7-0.3,0.9-0.6    c0.3-0.2,0.5-0.5,0.6-0.8c0.2-0.3,0.2-0.7,0.3-1c0-0.1,0-0.2,0-0.3c0-0.1,0-0.2,0-0.3c0-0.1,0-0.2,0-0.3s0-0.2,0-0.3    C97.6,32.2,97.6,31.8,97.4,31.5z M96.1,33.1c0,0.1,0,0.2,0,0.3c0,0.1,0,0.2,0,0.2c0,0.2-0.1,0.5-0.2,0.6    c-0.1,0.2-0.2,0.3-0.3,0.4c-0.1,0.1-0.3,0.2-0.4,0.2c-0.2,0-0.3,0.1-0.5,0.1c-0.2,0-0.3,0-0.5-0.1c-0.2,0-0.3-0.1-0.4-0.2    c-0.1-0.1-0.3-0.2-0.3-0.4c-0.1-0.2-0.2-0.4-0.2-0.6c0-0.1,0-0.1,0-0.2c0-0.1,0-0.2,0-0.3c0-0.1,0-0.2,0-0.3c0-0.1,0-0.2,0-0.2    c0-0.2,0.1-0.5,0.2-0.6c0.1-0.2,0.2-0.3,0.3-0.4c0.1-0.1,0.3-0.2,0.4-0.2c0.2,0,0.3-0.1,0.5-0.1c0.2,0,0.3,0,0.5,0.1    c0.2,0,0.3,0.1,0.4,0.2c0.1,0.1,0.2,0.2,0.3,0.4c0.1,0.2,0.2,0.4,0.2,0.6c0,0.1,0,0.1,0,0.2C96.1,32.9,96.1,33,96.1,33.1z     M108,30.7c-0.2-0.3-0.4-0.5-0.7-0.6c-0.3-0.2-0.7-0.2-1.1-0.2c-0.2,0-0.4,0-0.5,0.1c-0.2,0-0.4,0.1-0.5,0.2    c-0.2,0.1-0.3,0.2-0.5,0.3c-0.2,0.1-0.3,0.3-0.4,0.4c-0.2-0.3-0.4-0.6-0.8-0.7c-0.3-0.2-0.7-0.3-1.2-0.3c-0.3,0-0.6,0.1-0.9,0.2    c-0.3,0.1-0.5,0.3-0.7,0.5v-0.3c0-0.1,0-0.2-0.1-0.2c-0.1-0.1-0.1-0.1-0.2-0.1h-0.9c-0.1,0-0.2,0-0.2,0.1    c-0.1,0.1-0.1,0.1-0.1,0.2v5.6c0,0.1,0,0.2,0.1,0.2c0.1,0.1,0.1,0.1,0.2,0.1h0.9c0.1,0,0.2,0,0.2-0.1c0.1-0.1,0.1-0.1,0.1-0.2    v-3.2c0-0.5,0.1-0.9,0.3-1.1c0.2-0.2,0.5-0.3,0.8-0.3c0.4,0,0.7,0.1,0.9,0.3c0.2,0.2,0.3,0.6,0.3,1.1v3.2c0,0.1,0,0.2,0.1,0.2    c0.1,0.1,0.1,0.1,0.2,0.1h0.9c0.1,0,0.2,0,0.2-0.1c0.1-0.1,0.1-0.1,0.1-0.2v-3.2c0-0.5,0.1-0.9,0.4-1.1c0.2-0.2,0.5-0.3,0.8-0.3    c0.4,0,0.7,0.1,0.9,0.3c0.2,0.2,0.3,0.6,0.3,1.1v3.2c0,0.1,0,0.2,0.1,0.2c0.1,0.1,0.1,0.1,0.2,0.1h0.9c0.1,0,0.2,0,0.2-0.1    c0.1-0.1,0.1-0.1,0.1-0.2v-3.2c0-0.4,0-0.7-0.1-1.1C108.3,31.3,108.2,31,108,30.7z M119,30.7c-0.2-0.3-0.4-0.5-0.7-0.6    c-0.3-0.2-0.7-0.2-1.1-0.2c-0.2,0-0.4,0-0.5,0.1c-0.2,0-0.4,0.1-0.5,0.2c-0.2,0.1-0.3,0.2-0.5,0.3c-0.2,0.1-0.3,0.3-0.4,0.4    c-0.2-0.3-0.4-0.6-0.8-0.7c-0.3-0.2-0.7-0.3-1.2-0.3c-0.3,0-0.6,0.1-0.9,0.2c-0.3,0.1-0.5,0.3-0.7,0.5v-0.3c0-0.1,0-0.2-0.1-0.2    c-0.1-0.1-0.1-0.1-0.2-0.1h-0.9c-0.1,0-0.2,0-0.2,0.1c-0.1,0.1-0.1,0.1-0.1,0.2v5.6c0,0.1,0,0.2,0.1,0.2c0.1,0.1,0.1,0.1,0.2,0.1    h0.9c0.1,0,0.2,0,0.2-0.1c0.1-0.1,0.1-0.1,0.1-0.2v-3.2c0-0.5,0.1-0.9,0.3-1.1c0.2-0.2,0.5-0.3,0.8-0.3c0.4,0,0.7,0.1,0.9,0.3    c0.2,0.2,0.3,0.6,0.3,1.1v3.2c0,0.1,0,0.2,0.1,0.2c0.1,0.1,0.1,0.1,0.2,0.1h0.9c0.1,0,0.2,0,0.2-0.1c0.1-0.1,0.1-0.1,0.1-0.2    v-3.2c0-0.5,0.1-0.9,0.4-1.1c0.2-0.2,0.5-0.3,0.8-0.3c0.4,0,0.7,0.1,0.9,0.3c0.2,0.2,0.3,0.6,0.3,1.1v3.2c0,0.1,0,0.2,0.1,0.2    c0.1,0.1,0.1,0.1,0.2,0.1h0.9c0.1,0,0.2,0,0.2-0.1c0.1-0.1,0.1-0.1,0.1-0.2v-3.2c0-0.4,0-0.7-0.1-1.1    C119.3,31.3,119.2,31,119,30.7z M125.9,30.8c-0.3-0.3-0.6-0.5-0.9-0.7c-0.4-0.2-0.8-0.2-1.2-0.2c-0.4,0-0.9,0.1-1.2,0.3    c-0.4,0.2-0.7,0.4-0.9,0.7c-0.3,0.3-0.5,0.6-0.6,1c-0.1,0.4-0.2,0.8-0.2,1.3c0,0.5,0.1,0.9,0.2,1.3c0.1,0.4,0.3,0.7,0.6,1    c0.3,0.3,0.6,0.5,0.9,0.7c0.4,0.2,0.8,0.2,1.2,0.2c0.4,0,0.8-0.1,1.2-0.2c0.3-0.1,0.6-0.3,0.9-0.4c0.2-0.2,0.4-0.3,0.5-0.5    c0.1-0.2,0.2-0.3,0.2-0.4c0-0.1,0-0.2-0.1-0.2c-0.1-0.1-0.1-0.1-0.2-0.1h-1c-0.1,0-0.2,0-0.2,0c-0.1,0-0.1,0.1-0.2,0.1    c-0.1,0.1-0.2,0.1-0.4,0.2c-0.2,0.1-0.4,0.1-0.6,0.1c-0.2,0-0.3,0-0.5-0.1c-0.2,0-0.3-0.1-0.4-0.2c-0.1-0.1-0.2-0.2-0.3-0.4    c-0.1-0.1-0.1-0.3-0.1-0.5h4c0.1,0,0.2,0,0.2-0.1c0.1-0.1,0.1-0.1,0.1-0.2v-0.5c0-0.4-0.1-0.8-0.2-1.2    C126.3,31.4,126.1,31.1,125.9,30.8z M122.4,32.4c0-0.1,0.1-0.2,0.1-0.4c0.1-0.1,0.1-0.3,0.3-0.4c0.1-0.1,0.2-0.2,0.4-0.3    c0.2-0.1,0.4-0.1,0.6-0.1c0.3,0,0.5,0,0.6,0.1c0.2,0.1,0.3,0.2,0.4,0.3c0.1,0.1,0.2,0.2,0.2,0.4c0,0.1,0.1,0.3,0.1,0.4H122.4z     M131.7,30h-0.5c-0.4,0-0.7,0.1-0.9,0.2c-0.2,0.1-0.5,0.3-0.7,0.4v-0.3c0-0.1,0-0.2-0.1-0.2c-0.1-0.1-0.1-0.1-0.2-0.1h-0.9    c-0.1,0-0.2,0-0.2,0.1c-0.1,0.1-0.1,0.1-0.1,0.2v5.6c0,0.1,0,0.2,0.1,0.2c0.1,0.1,0.1,0.1,0.2,0.1h0.9c0.1,0,0.2,0,0.2-0.1    c0.1-0.1,0.1-0.1,0.1-0.2v-3.1c0-0.5,0.1-0.8,0.3-1c0.2-0.2,0.6-0.3,1-0.3h0.8c0.1,0,0.2,0,0.2-0.1c0.1-0.1,0.1-0.1,0.1-0.2v-0.8    c0-0.1,0-0.2-0.1-0.2C131.9,30.1,131.8,30,131.7,30z M134.3,32.1c0.1-0.2,0.2-0.3,0.3-0.4c0.1-0.1,0.3-0.2,0.4-0.2    c0.2-0.1,0.3-0.1,0.5-0.1c0.2,0,0.4,0,0.5,0c0.1,0,0.3,0.1,0.3,0.1c0.1,0.1,0.2,0.1,0.2,0.2c0.1,0.1,0.1,0.2,0.2,0.3    c0,0.1,0.1,0.1,0.2,0.2c0.1,0.1,0.1,0.1,0.2,0.1h0.9c0.1,0,0.2,0,0.2-0.1c0.1-0.1,0.1-0.1,0.1-0.2c0-0.2-0.1-0.4-0.2-0.6    c-0.1-0.2-0.3-0.5-0.5-0.7c-0.2-0.2-0.5-0.4-0.9-0.6c-0.4-0.2-0.8-0.2-1.3-0.2c-0.4,0-0.8,0.1-1.2,0.2c-0.4,0.1-0.7,0.3-0.9,0.6    c-0.3,0.3-0.5,0.5-0.6,0.9c-0.2,0.3-0.2,0.7-0.3,1.1c0,0.2,0,0.3,0,0.5s0,0.3,0,0.5c0,0.4,0.1,0.7,0.3,1.1    c0.1,0.3,0.4,0.6,0.6,0.9c0.3,0.3,0.6,0.5,0.9,0.6c0.4,0.1,0.7,0.2,1.2,0.2c0.5,0,1-0.1,1.3-0.2c0.4-0.2,0.7-0.3,0.9-0.6    c0.2-0.2,0.4-0.4,0.5-0.7c0.1-0.2,0.2-0.4,0.2-0.6c0-0.1,0-0.2-0.1-0.2c-0.1-0.1-0.1-0.1-0.2-0.1h-0.9c-0.1,0-0.2,0-0.2,0.1    c-0.1,0.1-0.1,0.1-0.2,0.2c-0.1,0.1-0.1,0.2-0.2,0.3c-0.1,0.1-0.2,0.1-0.2,0.2c-0.1,0.1-0.2,0.1-0.3,0.1c-0.1,0-0.3,0-0.5,0    c-0.2,0-0.3,0-0.5-0.1c-0.2-0.1-0.3-0.1-0.4-0.2c-0.1-0.1-0.2-0.2-0.3-0.4c-0.1-0.2-0.1-0.4-0.2-0.6c0-0.1,0-0.3,0-0.4    c0-0.2,0-0.3,0-0.4C134.2,32.5,134.3,32.3,134.3,32.1z M144.6,30.8c-0.3-0.3-0.6-0.5-0.9-0.7c-0.4-0.2-0.8-0.2-1.2-0.2    c-0.4,0-0.9,0.1-1.2,0.3c-0.4,0.2-0.7,0.4-0.9,0.7c-0.3,0.3-0.5,0.6-0.6,1c-0.1,0.4-0.2,0.8-0.2,1.3c0,0.5,0.1,0.9,0.2,1.3    c0.1,0.4,0.3,0.7,0.6,1c0.3,0.3,0.6,0.5,0.9,0.7c0.4,0.2,0.8,0.2,1.2,0.2c0.4,0,0.8-0.1,1.2-0.2c0.3-0.1,0.6-0.3,0.9-0.4    c0.2-0.2,0.4-0.3,0.5-0.5c0.1-0.2,0.2-0.3,0.2-0.4c0-0.1,0-0.2-0.1-0.2c-0.1-0.1-0.1-0.1-0.2-0.1h-1c-0.1,0-0.2,0-0.2,0    c-0.1,0-0.1,0.1-0.2,0.1c-0.1,0.1-0.2,0.1-0.4,0.2c-0.2,0.1-0.4,0.1-0.6,0.1c-0.2,0-0.3,0-0.5-0.1c-0.2,0-0.3-0.1-0.4-0.2    c-0.1-0.1-0.2-0.2-0.3-0.4c-0.1-0.1-0.1-0.3-0.1-0.5h4c0.1,0,0.2,0,0.2-0.1c0.1-0.1,0.1-0.1,0.1-0.2v-0.5c0-0.4-0.1-0.8-0.2-1.2    C145.1,31.4,144.9,31.1,144.6,30.8z M141.1,32.4c0-0.1,0.1-0.2,0.1-0.4c0.1-0.1,0.1-0.3,0.3-0.4c0.1-0.1,0.2-0.2,0.4-0.3    c0.2-0.1,0.4-0.1,0.6-0.1c0.3,0,0.5,0,0.6,0.1c0.2,0.1,0.3,0.2,0.4,0.3c0.1,0.1,0.2,0.2,0.2,0.4c0,0.1,0.1,0.3,0.1,0.4H141.1z     M56,6.1H43.2c-0.2,0-0.4,0.1-0.5,0.2c-0.1,0.1-0.2,0.3-0.2,0.5v1.8c0,0.2,0.1,0.4,0.2,0.5c0.1,0.1,0.3,0.2,0.5,0.2h4.7v14.2    c0,0.2,0.1,0.4,0.2,0.5c0.1,0.1,0.3,0.2,0.5,0.2h2.1c0.2,0,0.4-0.1,0.5-0.2c0.1-0.1,0.2-0.3,0.2-0.5V9.3H56    c0.2,0,0.4-0.1,0.5-0.2c0.1-0.1,0.2-0.3,0.2-0.5V6.8c0-0.2-0.1-0.4-0.2-0.5C56.4,6.1,56.2,6.1,56,6.1z M73.5,6.1h-2.1    c-0.2,0-0.4,0.1-0.5,0.2c-0.1,0.1-0.2,0.3-0.2,0.5v6.7h-7.9V6.8c0-0.2-0.1-0.4-0.2-0.5c-0.1-0.1-0.3-0.2-0.5-0.2H60    c-0.2,0-0.4,0.1-0.5,0.2c-0.1,0.1-0.2,0.3-0.2,0.5v16.8c0,0.2,0.1,0.4,0.2,0.5c0.1,0.1,0.3,0.2,0.5,0.2h2.1    c0.2,0,0.4-0.1,0.5-0.2c0.1-0.1,0.2-0.3,0.2-0.5v-6.9h7.9v6.9c0,0.2,0.1,0.4,0.2,0.5c0.1,0.1,0.3,0.2,0.5,0.2h2.1    c0.2,0,0.4-0.1,0.5-0.2c0.1-0.1,0.2-0.3,0.2-0.5V6.8c0-0.2-0.1-0.4-0.2-0.5C73.9,6.1,73.7,6.1,73.5,6.1z M90.4,21h-8.6v-4.3h7.8    c0.2,0,0.4-0.1,0.5-0.2c0.1-0.1,0.2-0.3,0.2-0.5v-1.8c0-0.2-0.1-0.4-0.2-0.5c-0.1-0.1-0.3-0.2-0.5-0.2h-7.8V9.3h8.4    c0.2,0,0.4-0.1,0.5-0.2c0.1-0.1,0.2-0.3,0.2-0.5V6.8c0-0.2-0.1-0.4-0.2-0.5c-0.1-0.1-0.3-0.2-0.5-0.2H79c-0.2,0-0.4,0.1-0.5,0.2    c-0.1,0.1-0.2,0.3-0.2,0.5v16.8c0,0.2,0.1,0.4,0.2,0.5c0.1,0.1,0.3,0.2,0.5,0.2h11.4c0.2,0,0.4-0.1,0.5-0.2    c0.1-0.1,0.2-0.3,0.2-0.5v-1.8c0-0.2-0.1-0.4-0.2-0.5C90.7,21.1,90.6,21,90.4,21z M108.6,13.8h-6c-0.2,0-0.4,0.1-0.5,0.2    c-0.1,0.1-0.2,0.3-0.2,0.5v1.8c0,0.2,0.1,0.4,0.2,0.5c0.1,0.1,0.3,0.2,0.5,0.2h3.2v0.2c0,0.7-0.1,1.4-0.3,1.9    c-0.2,0.5-0.5,0.9-0.9,1.2s-0.9,0.5-1.4,0.7c-0.5,0.1-1.1,0.2-1.8,0.2c-1.3,0-2.3-0.3-3.1-1c-0.8-0.7-1.2-1.7-1.2-3.1    c0-0.7-0.1-1.4-0.1-2.1c0-0.8,0-1.5,0.1-2.1c0.1-1.2,0.5-2.1,1.2-2.8c0.8-0.7,1.8-1.1,3.1-1.1c0.8,0,1.4,0.1,2,0.3    c0.5,0.2,0.9,0.4,1.3,0.7c0.3,0.3,0.6,0.5,0.7,0.7c0.1,0.2,0.2,0.4,0.3,0.5c0.1,0.1,0.1,0.2,0.2,0.3c0.1,0.1,0.3,0.1,0.5,0.1h2.1    c0.2,0,0.4-0.1,0.5-0.2c0.1-0.1,0.2-0.3,0.2-0.5c0-0.4-0.2-0.9-0.4-1.5c-0.2-0.6-0.6-1.1-1.2-1.7c-0.6-0.5-1.4-1-2.3-1.4    c-1-0.4-2.2-0.6-3.7-0.6C100.1,5.8,99,6,98,6.3c-1,0.3-1.8,0.8-2.4,1.4c-0.7,0.6-1.2,1.4-1.5,2.2c-0.3,0.9-0.5,1.8-0.6,2.8    c0,0.3,0,0.7,0,1.1c0,0.4,0,0.8,0,1.2s0,0.8,0,1.2c0,0.4,0,0.8,0,1.1c0,1,0.2,2,0.6,2.9c0.3,0.9,0.8,1.6,1.5,2.2    c0.6,0.6,1.4,1.1,2.4,1.5c1,0.3,2.1,0.5,3.4,0.5c1.3,0,2.5-0.2,3.5-0.5s1.8-0.8,2.5-1.5c0.7-0.6,1.2-1.4,1.5-2.3    c0.3-0.9,0.5-1.8,0.5-2.9v-2.9c0-0.2-0.1-0.4-0.2-0.5C108.9,13.9,108.8,13.8,108.6,13.8z M113.3,24.3h11.4c0.2,0,0.4-0.1,0.5-0.2    c0.1-0.1,0.2-0.3,0.2-0.5v-1.8c0-0.2-0.1-0.4-0.2-0.5c-0.1-0.1-0.3-0.2-0.5-0.2h-8.6v-4.3h7.8c0.2,0,0.4-0.1,0.5-0.2    c0.1-0.1,0.2-0.3,0.2-0.5v-1.8c0-0.2-0.1-0.4-0.2-0.5c-0.1-0.1-0.3-0.2-0.5-0.2h-7.8V9.3h8.4c0.2,0,0.4-0.1,0.5-0.2    c0.1-0.1,0.2-0.3,0.2-0.5V6.8c0-0.2-0.1-0.4-0.2-0.5c-0.1-0.1-0.3-0.2-0.5-0.2h-11.2c-0.2,0-0.4,0.1-0.5,0.2    c-0.1,0.1-0.2,0.3-0.2,0.5v16.8c0,0.2,0.1,0.4,0.2,0.5C112.9,24.2,113.1,24.3,113.3,24.3z M145.5,6.3c-0.1-0.1-0.3-0.2-0.5-0.2    h-1.8c-0.3,0-0.6,0.1-0.8,0.3c-0.2,0.2-0.3,0.3-0.4,0.4l-4.9,8.6l-4.9-8.6c-0.1-0.1-0.2-0.2-0.4-0.4c-0.2-0.2-0.4-0.3-0.8-0.3    h-1.8c-0.2,0-0.4,0.1-0.5,0.2c-0.1,0.1-0.2,0.3-0.2,0.5v16.8c0,0.2,0.1,0.4,0.2,0.5c0.1,0.1,0.3,0.2,0.5,0.2h2.1    c0.2,0,0.4-0.1,0.5-0.2c0.1-0.1,0.2-0.3,0.2-0.5V13.4l3.4,5.8c0.1,0.1,0.2,0.3,0.4,0.4c0.2,0.1,0.4,0.2,0.6,0.2h1.4    c0.2,0,0.4-0.1,0.6-0.2c0.2-0.1,0.3-0.3,0.4-0.4l3.4-5.8v10.2c0,0.2,0.1,0.4,0.2,0.5c0.1,0.1,0.3,0.2,0.5,0.2h2.1    c0.2,0,0.4-0.1,0.5-0.2c0.1-0.1,0.2-0.3,0.2-0.5V6.8C145.7,6.6,145.6,6.4,145.5,6.3z"></path>		</g>	</g></g></svg>